<svg width="40" height="40" viewBox="0 0 40 40" fill="none" xmlns="http://www.w3.org/2000/svg">
<path d="M20.0049 26.25C21.9739 26.25 23.6459 25.5608 25.0209 24.1825C26.3959 22.8043 27.0834 21.1307 27.0834 19.1617C27.0834 17.1928 26.3942 15.5208 25.0159 14.1458C23.6377 12.7708 21.9641 12.0833 19.9951 12.0833C18.0262 12.0833 16.3542 12.7724 14.9792 14.1507C13.6042 15.529 12.9167 17.2026 12.9167 19.1715C12.9167 21.1405 13.6058 22.8125 14.9841 24.1875C16.3624 25.5625 18.036 26.25 20.0049 26.25ZM19.9902 23.8333C18.6912 23.8333 17.5903 23.3786 16.6875 22.4693C15.7847 21.56 15.3334 20.4558 15.3334 19.1568C15.3334 17.8578 15.788 16.7569 16.6973 15.8541C17.6066 14.9513 18.7108 14.5 20.0098 14.5C21.3088 14.5 22.4097 14.9546 23.3125 15.8639C24.2153 16.7733 24.6667 17.8774 24.6667 19.1764C24.6667 20.4754 24.212 21.5763 23.3027 22.4791C22.3934 23.3819 21.2892 23.8333 19.9902 23.8333ZM20 31.6666C15.9445 31.6666 12.2778 30.5138 9.00002 28.2083C5.72224 25.9027 3.2778 22.8888 1.66669 19.1666C3.2778 15.4444 5.72224 12.4305 9.00002 10.125C12.2778 7.8194 15.9445 6.66663 20 6.66663C24.0556 6.66663 27.7222 7.8194 31 10.125C34.2778 12.4305 36.7222 15.4444 38.3334 19.1666C36.7222 22.8888 34.2778 25.9027 31 28.2083C27.7222 30.5138 24.0556 31.6666 20 31.6666ZM19.993 29.1666C23.3588 29.1666 26.4514 28.2569 29.2709 26.4375C32.0903 24.618 34.2361 22.1944 35.7084 19.1666C34.2361 16.1388 32.0926 13.7152 29.2779 11.8958C26.4631 10.0763 23.3728 9.16663 20.0071 9.16663C16.6413 9.16663 13.5486 10.0763 10.7292 11.8958C7.90974 13.7152 5.75002 16.1388 4.25002 19.1666C5.75002 22.1944 7.9074 24.618 10.7221 26.4375C13.5369 28.2569 16.6272 29.1666 19.993 29.1666Z" fill="#898989"/>
</svg>
