<svg width="48" height="48" viewBox="0 0 48 48" fill="none" xmlns="http://www.w3.org/2000/svg">
<path d="M5.81444 0.093998C3.20162 0.473394 0.828006 2.40073 0.184001 4.6771C0.0736006 5.08685 0 12.265 0 24.0718C0 40.5376 0.0368003 42.9354 0.294402 43.7245C1.04881 46.1679 3.55123 47.9738 6.16405 47.9586C7.56246 47.9586 8.66647 47.564 10.3225 46.4562C11.0033 46.0009 11.7025 45.6215 11.8497 45.6215C11.9969 45.6215 12.6409 45.9706 13.2849 46.3955C14.9409 47.5033 16.1921 47.9586 17.6641 47.9586C19.0625 47.9738 19.8722 47.6854 21.7122 46.5472C22.3746 46.1527 23.0922 45.7733 23.313 45.7126C23.7914 45.5912 24.5274 45.8795 25.8522 46.6838C27.3794 47.6247 28.2994 47.9434 29.5322 47.9586C31.041 47.9586 31.7586 47.731 33.6171 46.5928C34.5003 46.0616 35.3467 45.6215 35.5123 45.6215C35.6595 45.6215 36.5795 46.0616 37.5363 46.6079C40.3147 48.1862 41.7315 48.3683 44.1051 47.4274C45.4483 46.8963 46.6628 45.8492 47.4172 44.5896L47.9324 43.7245L47.9876 24.3905C48.0244 7.66674 47.9876 4.93509 47.7668 4.26735C47.1964 2.65872 45.3563 1.06525 43.2403 0.367163L42.2283 0.0181187L24.4722 0.00294291C14.7017 -0.0122329 6.31125 0.0332946 5.81444 0.093998ZM42.3387 3.93349C42.6699 4.1156 43.1483 4.51017 43.3691 4.78333L43.7923 5.29931V24.0263C43.7923 44.2709 43.8475 43.1327 42.8171 43.9218C42.5779 44.1039 42.0995 44.3012 41.7499 44.3467C41.2347 44.4226 40.9403 44.3316 40.1123 43.8611C39.5603 43.5424 38.5851 42.9961 37.9595 42.6471C35.8987 41.4785 34.7947 41.5847 32.1818 43.1934C31.225 43.7852 30.2498 44.3012 30.0106 44.3619C29.4586 44.4833 28.7962 44.2102 26.717 42.9961C23.8098 41.2964 23.1106 41.3875 19.2649 43.8459C18.8969 44.0888 18.2897 44.3164 17.9033 44.3619C17.2777 44.4226 17.0385 44.3467 16.0081 43.7397C13.1929 42.0855 12.9537 41.9793 12.1073 41.8883C11.0033 41.7669 9.80727 42.2221 8.11446 43.4058C7.47046 43.8611 6.75285 44.2709 6.51365 44.3164C5.83284 44.4682 5.06004 44.0432 4.61844 43.2996L4.23203 42.6319L4.26883 23.8745L4.32403 5.1172L4.71044 4.69228C4.91284 4.46464 5.37284 4.1156 5.70404 3.91831L6.31125 3.58444H24.0122H41.7131L42.3387 3.93349Z" fill="#CA3799"/>
<path d="M10.5434 9.15404C9.8994 9.26028 9.2002 10.0494 9.2002 10.6716C9.2002 11.0814 9.3474 11.3242 9.8258 11.7188L10.4514 12.2347L22.3563 12.2044L34.2612 12.1589L34.7948 11.6581C35.6596 10.8537 35.4388 9.73073 34.3164 9.27545C33.7828 9.07817 32.2556 9.04781 22.3195 9.06299C16.0634 9.07817 10.7642 9.12369 10.5434 9.15404Z" fill="#CA3799"/>
<path d="M10.1386 15.9378C9.5682 16.1958 9.2186 16.7422 9.2002 17.3644C9.2002 17.759 9.3658 18.0169 9.8258 18.3963L10.4698 18.9275L18.4923 18.882L26.5331 18.8364L27.0667 18.3356C27.9131 17.5617 27.6739 16.3172 26.5883 15.9075C25.8707 15.6343 10.7458 15.6647 10.1386 15.9378Z" fill="#CA3799"/>
<path d="M15.4561 23.2978C15.3641 23.4647 15.2721 23.7986 15.2721 24.0565C15.2721 24.3297 15.1801 24.527 15.0513 24.527C14.5729 24.527 12.5857 25.4072 12.1072 25.8321C10.5432 27.1979 10.7088 29.535 12.4385 30.5063C13.0641 30.8553 14.7201 31.3409 17.1305 31.8721C18.5841 32.206 19.1361 32.6005 19.1361 33.3138C19.1361 35.1349 15.6401 35.4081 13.8553 33.7387C13.5241 33.42 13.1929 33.1772 13.1193 33.1772C12.8065 33.1772 10.488 34.0119 10.488 34.1333C10.488 34.5279 11.3344 35.4991 11.9968 35.8785C12.6593 36.2427 13.9473 36.698 15.0513 36.9105C15.1617 36.9408 15.2721 37.1988 15.2721 37.4872C15.2721 38.1397 15.6769 38.4888 16.4313 38.4888C17.2225 38.4888 17.4065 38.3674 17.5905 37.6693C17.7561 37.1229 17.8297 37.0622 18.7497 36.8043C20.9577 36.2124 22.2641 34.8921 22.2641 33.2228C22.2641 32.1604 21.9329 31.5382 20.9945 30.8705C20.1481 30.2786 19.5225 30.051 16.9281 29.4743C15.5481 29.1556 15.0697 28.9735 14.6649 28.6093C14.2601 28.2451 14.1681 28.0478 14.2601 27.7291C14.4625 27.031 14.9777 26.7578 16.1921 26.682C17.5353 26.6061 18.2345 26.8185 18.9337 27.5015L19.4305 28.0174L20.4425 27.7746C21.8961 27.4256 22.0801 27.2283 21.6201 26.5454C21.1417 25.8018 19.9273 25.0581 18.6761 24.7395C17.7561 24.4966 17.6641 24.4359 17.6641 24.0414C17.6641 23.2522 17.3697 23.0094 16.4681 23.0094C15.8425 23.0094 15.6033 23.0853 15.4561 23.2978Z" fill="#CA3799"/>
</svg>
